<svg xmlns="http://www.w3.org/2000/svg" viewBox="0 0 640 420">
  <path fill="#111827" d="M70 247c24-11 49-39 77-83 20-31 48-53 84-66l92-33 67 60c17 15 39 25 61 28l75 10c25 3 44 24 44 49 0 27-22 49-49 49H136c-40 0-72-32-72-72 0-16 2-30 6-42z"/>
  <path fill="#3b82f6" d="M169 175c14-24 35-42 63-53l80-28 46 42c14 12 31 19 49 22l92 12c9 1 16 8 16 17 0 10-8 18-18 18H181c-18 0-30-18-21-35z"/>
  <path fill="#ffffff" opacity=".82" d="M238 122l90 80-24 4-86-78z"/>
  <ellipse cx="294" cy="306" rx="157" ry="18" fill="#000000" opacity=".08"/>
</svg>
