<svg xmlns="http://www.w3.org/2000/svg" viewBox="0 0 640 420">
  <path fill="#2563eb" d="M95 232c36-17 59-41 95-76 27-27 58-43 95-48l93-13c19-2 37 3 52 14l47 35c15 11 33 17 52 18l34 2c25 2 45 22 45 47 0 28-23 51-51 51H153c-44 0-80-36-80-80 0-19 8-35 22-50z"/>
  <path fill="#93c5fd" d="M172 168c28-16 61-27 99-32l78-10c15-2 30 2 42 11l44 32c6 5 13 7 20 8l60 4c11 1 20 10 20 21 0 12-9 21-21 21H187c-22 0-37-22-27-42 3-6 6-10 12-13z"/>
  <ellipse cx="302" cy="303" rx="157" ry="18" fill="#000000" opacity=".08"/>
</svg>
