<svg xmlns="http://www.w3.org/2000/svg" viewBox="0 0 640 420">
  <path fill="#8b5e3c" d="M84 243c27-21 44-47 62-74 25-37 64-61 108-66l126-14c16-2 32 2 45 12l72 52c10 7 22 12 34 13l43 5c21 2 38 20 38 41 0 23-19 42-42 42H144c-39 0-70-31-70-70 0-16 3-30 10-41z"/>
  <path fill="#b07b4f" d="M174 154c22-21 51-34 83-38l102-11c10-1 20 2 28 8l56 40c9 6 19 10 30 11l60 7c8 1 15 8 15 16 0 9-7 16-16 16H181c-20 0-31-22-18-38 4-4 7-8 11-11z"/>
  <path fill="#f3e4d2" opacity=".7" d="M262 146h121v26H262z"/>
  <ellipse cx="300" cy="296" rx="160" ry="16" fill="#000000" opacity=".08"/>
</svg>
