<svg xmlns="http://www.w3.org/2000/svg" viewBox="0 0 640 420">
  <path fill="#111827" d="M78 252c26-16 48-53 75-79 23-22 54-37 92-41l98-12c15-2 30 1 42 10l52 39c12 9 27 15 42 16l63 6c24 2 42 22 42 46 0 26-21 47-47 47H150c-41 0-74-33-74-74 0-14 4-27 2-38z"/>
  <path fill="#374151" d="M171 183c27-15 58-24 91-28l77-9c11-1 22 2 31 9l47 35c7 5 15 8 23 9l88 7c10 1 18 9 18 19 0 11-9 20-20 20H188c-22 0-38-21-31-42 3-9 7-15 14-20z"/>
  <path fill="#9ca3af" d="M371 153l71 49-22 4-63-45z"/>
  <path fill="#ffffff" opacity=".82" d="M464 228h54c8 0 15 6 15 15v4h-81z"/>
  <ellipse cx="291" cy="305" rx="147" ry="19" fill="#000000" opacity=".08"/>
</svg>
