<svg xmlns="http://www.w3.org/2000/svg" viewBox="0 0 640 420">
  <path fill="#f8fafc" stroke="#cbd5e1" stroke-width="8" d="M138 236c53-26 99-65 149-95 33-20 71-35 110-38l23 45c-40 17-75 40-108 67l-68 56 120 3c23 1 42 20 42 43 0 24-19 43-43 43H138c-24 0-43-19-43-43 0-34 15-62 43-81z"/>
  <path fill="#e2e8f0" d="M291 170c36-22 72-39 108-50l9 17c-36 16-73 40-108 69l-37 31h92c11 0 20 9 20 20H171c0-11 9-20 21-24 40-13 70-35 99-63z"/>
  <path fill="#64748b" d="M413 164l46 154h-31l-35-122z"/>
  <ellipse cx="292" cy="325" rx="145" ry="16" fill="#000000" opacity=".08"/>
</svg>
